<svg width="15" height="15" viewBox="0 0 15 15" fill="none" xmlns="http://www.w3.org/2000/svg">
<path d="M7.5 15C11.6421 15 15 11.6421 15 7.5C15 3.35786 11.6421 0 7.5 0C3.35786 0 0 3.35786 0 7.5C0 11.6421 3.35786 15 7.5 15Z" fill="#FF6D00"/>
<path d="M7.75391 9.03223H7.24121L6.99219 3.86133H8.00293L7.75391 9.03223ZM6.9043 10.4824C6.9043 10.0397 7.09961 9.81836 7.49023 9.81836C7.67904 9.81836 7.82389 9.87533 7.9248 9.98926C8.02897 10.1032 8.08105 10.2676 8.08105 10.4824C8.08105 10.6908 8.02897 10.8535 7.9248 10.9707C7.82064 11.0846 7.67578 11.1416 7.49023 11.1416C7.32096 11.1416 7.18099 11.0911 7.07031 10.9902C6.95964 10.8861 6.9043 10.7168 6.9043 10.4824Z" fill="white"/>
</svg>
