<svg width="72" height="11" viewBox="0 0 72 11" fill="none" xmlns="http://www.w3.org/2000/svg">
<path d="M6.23394 0.342658L7.51633 2.95107C7.6055 3.13249 7.77793 3.2582 7.97739 3.28724L10.845 3.70555C11.3474 3.77888 11.5478 4.39837 11.1844 4.75382L9.10942 6.78418C8.96521 6.92536 8.89928 7.12892 8.93343 7.32819L9.42319 10.1952C9.50905 10.6973 8.98395 11.0801 8.53475 10.8432L5.96996 9.48973C5.79161 9.39569 5.57839 9.39569 5.40004 9.48973L2.83525 10.8432C2.38605 11.0803 1.86095 10.6973 1.9468 10.1952L2.43657 7.32819C2.47072 7.12892 2.40478 6.92536 2.26058 6.78418L0.185562 4.75382C-0.177787 4.39813 0.0226241 3.77864 0.524956 3.70555L3.39261 3.28724C3.59207 3.2582 3.7645 3.13249 3.85367 2.95107L5.13606 0.342658C5.36043 -0.114219 6.00933 -0.114219 6.23394 0.342658Z" fill="#DADADA"/>
<path d="M21.4917 0.342658L22.8254 2.95107C22.9181 3.13249 23.0975 3.2582 23.3049 3.28724L26.2873 3.70555C26.8097 3.77888 27.0181 4.39837 26.6402 4.75382L24.4822 6.78418C24.3322 6.92536 24.2637 7.12892 24.2992 7.32819L24.8085 10.1952C24.8978 10.6973 24.3517 11.0801 23.8846 10.8432L21.2172 9.48973C21.0317 9.39569 20.8099 9.39569 20.6245 9.48973L17.9571 10.8432C17.4899 11.0803 16.9438 10.6973 17.0331 10.1952L17.5425 7.32819C17.578 7.12892 17.5094 6.92536 17.3594 6.78418L15.2014 4.75382C14.8235 4.39813 15.032 3.77864 15.5544 3.70555L18.5367 3.28724C18.7442 3.2582 18.9235 3.13249 19.0162 2.95107L20.3499 0.342658C20.5833 -0.114219 21.2581 -0.114219 21.4917 0.342658Z" fill="#DADADA"/>
<path d="M36.4562 0.342658L37.6873 2.95107C37.7729 3.13249 37.9384 3.2582 38.1299 3.28724L40.8829 3.70555C41.3651 3.77888 41.5575 4.39837 41.2087 4.75382L39.2167 6.78418C39.0782 6.92536 39.0149 7.12892 39.0477 7.32819L39.5179 10.1952C39.6003 10.6973 39.0962 11.0801 38.665 10.8432L36.2028 9.48973C36.0316 9.39569 35.8269 9.39569 35.6557 9.48973L33.1935 10.8432C32.7622 11.0803 32.2581 10.6973 32.3406 10.1952L32.8107 7.32819C32.8435 7.12892 32.7802 6.92536 32.6418 6.78418L30.6498 4.75382C30.3009 4.39813 30.4933 3.77864 30.9756 3.70555L33.7285 3.28724C33.92 3.2582 34.0855 3.13249 34.1711 2.95107L35.4022 0.342658C35.6176 -0.114219 36.2406 -0.114219 36.4562 0.342658Z" fill="#DADADA"/>
<path d="M51.7139 0.342658L52.9963 2.95107C53.0855 3.13249 53.2579 3.2582 53.4574 3.28724L56.325 3.70555C56.8274 3.77888 57.0278 4.39837 56.6644 4.75382L54.5894 6.78418C54.4452 6.92536 54.3793 7.12892 54.4134 7.32819L54.9032 10.1952C54.989 10.6973 54.4639 11.0801 54.0147 10.8432L51.4499 9.48973C51.2716 9.39569 51.0584 9.39569 50.88 9.48973L48.3152 10.8432C47.866 11.0803 47.3409 10.6973 47.4268 10.1952L47.9165 7.32819C47.9507 7.12892 47.8848 6.92536 47.7406 6.78418L45.6655 4.75382C45.3022 4.39813 45.5026 3.77864 46.0049 3.70555L48.8726 3.28724C49.0721 3.2582 49.2445 3.13249 49.3337 2.95107L50.616 0.342658C50.8404 -0.114219 51.4893 -0.114219 51.7139 0.342658Z" fill="#DADADA"/>
<path d="M66.7223 0.342658L68.0047 2.95107C68.0939 3.13249 68.2663 3.2582 68.4658 3.28724L71.3334 3.70555C71.8358 3.77888 72.0362 4.39837 71.6728 4.75382L69.5978 6.78418C69.4536 6.92536 69.3877 7.12892 69.4218 7.32819L69.9116 10.1952C69.9975 10.6973 69.4724 11.0801 69.0232 10.8432L66.4584 9.48973C66.28 9.39569 66.0668 9.39569 65.8884 9.48973L63.3237 10.8432C62.8745 11.0803 62.3494 10.6973 62.4352 10.1952L62.925 7.32819C62.9591 7.12892 62.8932 6.92536 62.749 6.78418L60.674 4.75382C60.3106 4.39813 60.511 3.77864 61.0134 3.70555L63.881 3.28724C64.0805 3.2582 64.2529 3.13249 64.3421 2.95107L65.6245 0.342658C65.8488 -0.114219 66.4977 -0.114219 66.7223 0.342658Z" fill="#DADADA"/>
<mask id="mask0" mask-type="alpha" maskUnits="userSpaceOnUse" x="60" y="0" width="12" height="11">
<path d="M66.7223 0.342658L68.0047 2.95107C68.0939 3.13249 68.2663 3.2582 68.4658 3.28724L71.3334 3.70555C71.8358 3.77888 72.0362 4.39837 71.6728 4.75382L69.5978 6.78418C69.4536 6.92536 69.3877 7.12892 69.4218 7.32819L69.9116 10.1952C69.9975 10.6973 69.4724 11.0801 69.0232 10.8432L66.4584 9.48973C66.28 9.39569 66.0668 9.39569 65.8884 9.48973L63.3237 10.8432C62.8745 11.0803 62.3494 10.6973 62.4352 10.1952L62.925 7.32819C62.9591 7.12892 62.8932 6.92536 62.749 6.78418L60.674 4.75382C60.3106 4.39813 60.511 3.77864 61.0134 3.70555L63.881 3.28724C64.0805 3.2582 64.2529 3.13249 64.3421 2.95107L65.6245 0.342658C65.8488 -0.114219 66.4977 -0.114219 66.7223 0.342658Z" fill="white"/>
</mask>
<g mask="url(#mask0)">
</g>
</svg>
